<svg id="Icons" height="512" viewBox="0 0 60 60" width="512" xmlns="http://www.w3.org/2000/svg"><path d="m53 59h-46a6 6 0 0 1 -6-6v-3a1 1 0 0 1 1-1h56a1 1 0 0 1 1 1v3a6 6 0 0 1 -6 6z" fill="#547580"/><path d="m20 49h20a0 0 0 0 1 0 0v2a3 3 0 0 1 -3 3h-14a3 3 0 0 1 -3-3v-2a0 0 0 0 1 0 0z" fill="#3f5c6c"/><path d="m51 8h2a4 4 0 0 1 4 4v37h-54v-37a4 4 0 0 1 4-4z" fill="#b0d3f0"/><path d="m15 54h-2a1 1 0 0 1 0-2h2a1 1 0 0 1 0 2z" fill="#3f5c6c"/><circle cx="6" cy="53" fill="#f3d55b" r="1"/><circle cx="9" cy="53" fill="#65ddb9" r="1"/><path d="m53 12v3h-9v-8h4a5 5 0 0 1 5 5z" fill="#35495e"/><path d="m53 15v19a5 5 0 0 1 -5 5h-4v-24z" fill="#2c3e50"/><path d="m44 7v32h-32a5 5 0 0 1 -5-5v-22a5 5 0 0 1 5-5h5l3.11-4.66a2.993 2.993 0 0 1 2.5-1.34h8.78a2.993 2.993 0 0 1 2.5 1.34l3.11 4.66z" fill="#3f5c6c"/><circle cx="27" cy="22" fill="#547580" r="13"/><circle cx="27" cy="22" fill="#90bae1" r="9"/><path d="m22 23a1 1 0 0 1 -1-1 6.006 6.006 0 0 1 6-6 1 1 0 0 1 0 2 4 4 0 0 0 -4 4 1 1 0 0 1 -1 1z" fill="#b0d3f0"/><g fill="#f3d55b"><path d="m30 6h-6a1 1 0 0 1 0-2h6a1 1 0 0 1 0 2z"/><path d="m49 12h-1a1 1 0 0 1 0-2h1a1 1 0 0 1 0 2z"/></g></svg>